<svg xmlns="http://www.w3.org/2000/svg" viewBox="0 0 64 64" role="img" aria-label="DARDGO">
  <defs>
    <linearGradient id="bg" x1="0" y1="0" x2="1" y2="1">
      <stop offset="0%" stop-color="#2E7D32"/>
      <stop offset="100%" stop-color="#1B5E20"/>
    </linearGradient>
  </defs>
  <rect width="64" height="64" rx="14" ry="14" fill="url(#bg)"/>
  <!-- Stylised Ayurvedic leaf mark -->
  <path
    d="M44 14c-12 0-22 9-22 22 0 4 1 7 3 10-2-9 4-18 14-21 1 0 1 1 0 1-9 4-13 12-12 19 3 2 7 4 12 4 12 0 22-9 22-22 0-1 0-2-1-3 0 0 0-1-1-1-3-7-9-9-15-9z"
    fill="#FFD54F" opacity="0.95"/>
  <path
    d="M22 50c0-2 1-5 3-7"
    stroke="#FFD54F" stroke-width="2.5" stroke-linecap="round" fill="none" opacity="0.85"/>
</svg>
